<?xml version="1.0" encoding="UTF-8"?>
<svg xmlns="http://www.w3.org/2000/svg" xmlns:xlink="http://www.w3.org/1999/xlink" width="96pt" height="96pt" viewBox="0 0 96 96" version="1.1">
<defs>
<linearGradient id="linear0" gradientUnits="userSpaceOnUse" x1="92.686279" y1="46.125" x2="92.686279" y2="116" gradientTransform="matrix(0.55814,0,0,0.55814,0,0)">
<stop offset="0" style="stop-color:rgb(10.196079%,42.745098%,100%);stop-opacity:1;"/>
<stop offset="1" style="stop-color:rgb(78.431374%,13.333334%,100%);stop-opacity:1;"/>
</linearGradient>
</defs>
<g id="surface38901174">
<path style=" stroke:none;fill-rule:nonzero;fill:rgb(100%,100%,100%);fill-opacity:1;" d="M 39.097656 67.503906 C 33.535156 67.503906 28.359375 65.875 24 63.085938 C 24.773438 63.175781 25.554688 63.21875 26.351562 63.21875 C 28.902344 63.21875 31.339844 62.738281 33.582031 61.863281 C 36.386719 64.425781 39.84375 66.285156 43.671875 67.167969 C 42.210938 67.390625 40.683594 67.503906 39.097656 67.503906 M 25.929688 42.34375 C 25.929688 42.296875 25.929688 42.257812 25.929688 42.214844 C 26.085938 42.300781 26.242188 42.382812 26.402344 42.460938 C 26.308594 43.226562 26.253906 44.003906 26.238281 44.792969 C 26.035156 44.007812 25.929688 43.1875 25.929688 42.34375 Z M 26.007812 35.25 C 26.007812 33.445312 26.496094 31.753906 27.34375 30.300781 C 28.121094 31.257812 28.964844 32.160156 29.859375 33.003906 C 28.574219 34.980469 27.589844 37.171875 26.972656 39.507812 C 26.355469 38.21875 26.007812 36.773438 26.007812 35.25 Z M 70.675781 29.214844 C 70.140625 30.890625 69.164062 32.371094 67.886719 33.519531 C 67.378906 32.699219 66.820312 31.914062 66.214844 31.164062 C 67.792969 30.695312 69.289062 30.039062 70.675781 29.214844 Z M 72 33.113281 C 71.230469 34.265625 70.339844 35.335938 69.351562 36.304688 C 69.050781 35.621094 68.722656 34.960938 68.359375 34.316406 C 69.625 34.03125 70.839844 33.628906 72 33.113281 Z M 72 33.113281 "/>
<path style=" stroke:none;fill-rule:nonzero;fill:rgb(100%,100%,100%);fill-opacity:1;" d="M 48 87 C 26.496094 87 9 69.503906 9 48 C 9 26.496094 26.496094 9 48 9 C 69.503906 9 87 26.496094 87 48 C 87 69.503906 69.503906 87 48 87 Z M 48 12 C 28.152344 12 12 28.152344 12 48 C 12 67.847656 28.152344 84 48 84 C 67.847656 84 84 67.847656 84 48 C 84 28.152344 67.847656 12 48 12 Z M 48 12 "/>
<path style=" stroke:none;fill-rule:nonzero;fill:url(#linear0);" d="M 48.730469 25.746094 C 58.339844 25.746094 66.53125 32.898438 67.988281 42.257812 L 71.773438 42.257812 C 72.632812 42.257812 73.414062 42.710938 73.863281 43.464844 C 74.332031 44.246094 74.355469 45.230469 73.925781 46.03125 L 69.710938 53.90625 C 69.109375 55.039062 67.96875 55.746094 66.734375 55.746094 C 65.496094 55.746094 64.355469 55.039062 63.757812 53.910156 L 59.542969 46.03125 C 59.113281 45.230469 59.136719 44.246094 59.601562 43.464844 C 60.054688 42.710938 60.832031 42.257812 61.695312 42.257812 L 64.960938 42.257812 C 63.542969 34.5625 56.707031 28.746094 48.730469 28.746094 C 39.632812 28.746094 32.230469 36.148438 32.230469 45.246094 C 32.230469 54.339844 39.632812 61.746094 48.730469 61.746094 C 52.136719 61.746094 55.402344 60.714844 58.183594 58.773438 C 58.863281 58.296875 59.796875 58.460938 60.269531 59.140625 C 60.746094 59.820312 60.582031 60.753906 59.902344 61.230469 C 56.617188 63.527344 52.753906 64.746094 48.730469 64.746094 C 37.980469 64.746094 29.230469 55.996094 29.230469 45.246094 C 29.230469 34.492188 37.980469 25.746094 48.730469 25.746094 Z M 66.40625 52.5 C 66.574219 52.820312 66.886719 52.824219 67.0625 52.492188 L 70.933594 45.257812 L 62.527344 45.257812 Z M 66.40625 52.5 "/>
</g>
</svg>
